<svg width="74" height="74" viewBox="0 0 74 74" fill="none" xmlns="http://www.w3.org/2000/svg">
<g clip-path="url(#clip0)">
<path d="M58.8257 72.8438H15.1738V61.2204C15.1738 51.9243 22.7098 44.3885 32.0058 44.3885H41.9938C51.2899 44.3885 58.8257 51.9245 58.8257 61.2204V72.8438Z" fill="#86DCFF"/>
<path d="M15.1738 70.2422H58.8259V72.8438H15.1738V70.2422Z" fill="#56CAED"/>
<path d="M36.9994 59.9169L49.5061 46.1552C47.2445 45.0253 44.6935 44.3883 41.9934 44.3883H32.0054C29.3053 44.3883 26.7543 45.0251 24.4927 46.1551L36.9994 59.9169Z" fill="#E4EEF9"/>
<path d="M26.1903 45.4217C25.6087 45.6359 25.042 45.8808 24.4927 46.1552L36.9994 59.9169L49.5061 46.1552C48.9568 45.8808 48.3899 45.6359 47.8085 45.4217L37.5342 56.7268C37.2474 57.0423 36.7512 57.0423 36.4646 56.7268L26.1903 45.4217Z" fill="#D5E0F2"/>
<path d="M23.3387 30.7281V25.253C23.1839 25.2371 23.0268 25.2289 22.8677 25.2289C20.352 25.2289 18.3125 27.2683 18.3125 29.784C18.3125 32.2998 20.352 34.3392 22.8677 34.3392C23.1859 34.3392 23.4965 34.3063 23.7964 34.2441C23.4984 33.1221 23.3387 31.9439 23.3387 30.7281Z" fill="#FFC4AD"/>
<path d="M51.1319 25.2278C50.9728 25.2278 50.8156 25.2361 50.6609 25.252V30.7271C50.6609 31.9428 50.5011 33.1211 50.2031 34.2431C50.503 34.3053 50.8136 34.3382 51.1319 34.3382C53.6476 34.3382 55.6871 32.2987 55.6871 29.783C55.6871 27.2673 53.6476 25.2278 51.1319 25.2278Z" fill="#FFC4AD"/>
<path d="M22.8677 31.7368C20.8041 31.7368 19.0619 30.3642 18.502 28.4824C18.3793 28.8947 18.3125 29.331 18.3125 29.7831C18.3125 32.2989 20.352 34.3383 22.8677 34.3383C23.1859 34.3383 23.4965 34.3054 23.7964 34.2432C23.5794 33.4258 23.4366 32.5779 23.3746 31.7079C23.2081 31.7264 23.0391 31.7368 22.8677 31.7368Z" fill="#FFB69F"/>
<path d="M51.1317 31.7368C50.9603 31.7368 50.7914 31.7265 50.6249 31.708C50.5629 32.5781 50.4202 33.4258 50.2031 34.2434C50.503 34.3055 50.8136 34.3385 51.1319 34.3385C53.6476 34.3385 55.6871 32.299 55.6871 29.7833C55.6871 29.3312 55.6202 28.8949 55.4976 28.4825C54.9375 30.364 53.1954 31.7368 51.1317 31.7368Z" fill="#FFB69F"/>
<path d="M23.3384 11.2264V30.7273C23.3384 38.2721 29.4548 44.3885 36.9996 44.3885C44.5444 44.3885 50.6609 38.2722 50.6609 30.7273V11.2264H23.3384Z" fill="#FFE0CC"/>
<path d="M36.9996 41.7869C29.4548 41.7869 23.3384 35.6706 23.3384 28.1257V30.7272C23.3384 38.2721 29.4548 44.3885 36.9996 44.3885C44.5444 44.3885 50.6609 38.2722 50.6609 30.7272V28.1257C50.6609 35.6705 44.5444 41.7869 36.9996 41.7869Z" fill="#FFCEB3"/>
<path d="M50.6598 21.2599C47.9525 19.7083 45.4424 15.1955 45.4424 15.1955C42.8312 20.1757 37.1609 20.7121 37.1609 20.7121C37.6831 18.1837 35.7433 15.8084 35.7433 15.8084C31.1737 21.1048 25.2392 21.5066 23.7048 21.4684C23.4715 21.4626 23.2405 21.4245 23.0168 21.3561C19.4408 20.2616 16.1001 15.8816 16.1001 15.8816C21.2765 16.0419 22.9986 12.6851 22.9986 12.6851C17.7093 12.8451 17.3474 7.38848 17.3474 7.38848C25.3235 8.42838 26.9194 3.71218 33.9533 1.63469C40.9872 -0.442806 45.9675 4.92248 45.9675 4.92248C45.9675 4.92248 53.0962 4.23423 53.7079 11.5015C54.2923 18.4474 50.6598 21.2599 50.6598 21.2599Z" fill="#2D4456"/>
<path d="M50.1554 18.335C48.433 17.116 46.8524 14.8619 46.0319 13.5705C45.7613 13.1446 45.1542 13.1275 44.8452 13.5264C41.8917 17.3402 35.7432 15.8084 35.7432 15.8084C35.7432 15.8084 37.6829 18.1837 37.1607 20.7121C37.1607 20.7121 42.8308 20.1757 45.4422 15.1955C45.4422 15.1955 47.9523 19.7083 50.6596 21.2599C50.6596 21.2599 54.2345 18.488 53.7181 11.6578C53.4182 15.3287 51.8756 17.4093 51.1025 18.2363C50.8548 18.5009 50.4511 18.5443 50.1554 18.335Z" fill="#253847"/>
<path d="M35.8961 14.9519C35.9941 14.2741 35.174 13.8552 34.6812 14.3309C30.2977 18.5617 25.1227 18.9023 23.7048 18.8668C23.4715 18.8611 23.2405 18.8229 23.0168 18.7545C21.2807 18.2231 19.6012 16.9176 18.3314 15.7145C17.6714 15.8415 16.9309 15.9071 16.1001 15.8814C16.1001 15.8814 19.4408 20.2614 23.0168 21.356C23.2404 21.4245 23.4713 21.4625 23.7048 21.4683C25.2394 21.5066 31.1737 21.1046 35.7433 15.8083C35.8104 15.4842 35.8601 15.2004 35.8961 14.9519Z" fill="#253847"/>
<path d="M39.5323 49.2814H34.4679L33.3633 44.3885H40.637L39.5323 49.2814Z" fill="#E6485D"/>
<path d="M36.9998 59.9169C36.9998 59.9169 39.5357 57.1265 40.7246 55.8182L39.5319 49.2813H34.4676L33.2749 55.8182L36.9998 59.9169Z" fill="#FF5876"/>
<path d="M40.7246 55.8182L40.3293 53.6516L37.5345 56.7268C37.2478 57.0423 36.7516 57.0423 36.465 56.7268L33.6702 53.6516L33.2749 55.8182L36.9998 59.9169C36.9998 59.9169 39.5357 57.1265 40.7246 55.8182Z" fill="#E6485D"/>
<path d="M24.4928 46.1552C23.1072 46.8475 21.8301 47.7244 20.6948 48.755L35.3952 64.9304C36.2555 65.8769 37.7439 65.8769 38.604 64.9304L53.3044 48.755C52.1691 47.7242 50.8919 46.8474 49.5064 46.1552L36.9995 59.9169L24.4928 46.1552Z" fill="#FFCF4D"/>
<path d="M38.604 62.329C37.7437 63.2755 36.2553 63.2755 35.3952 62.329L22.0518 47.6468C21.5802 47.9929 21.1271 48.3628 20.6948 48.7552L35.3952 64.9306C36.2555 65.8771 37.7439 65.8771 38.604 64.9306L53.3044 48.7552C52.8721 48.3627 52.419 47.9929 51.9474 47.6468L38.604 62.329Z" fill="#FFB629"/>
<path d="M44.428 43.4838C47.4919 41.6941 49.8572 38.8335 51.0062 35.4187C51.0571 35.42 51.1079 35.4226 51.1588 35.4226C54.274 35.4226 56.8085 32.8881 56.8085 29.7729C56.8085 26.8652 54.6002 24.4643 51.7729 24.1571V21.7072C52.8095 20.6632 55.3337 17.4562 54.8211 11.3657C54.6132 8.89563 53.7011 6.97019 52.1098 5.64267C50.0699 3.94081 47.5036 3.75957 46.4114 3.76217C45.0642 2.5033 40.2067 -1.4093 33.6399 0.530019C32.37 0.905222 31.1557 1.39533 29.9279 2.02852C29.3947 2.30356 29.1854 2.95843 29.4603 3.49146C29.7354 4.0245 30.3902 4.23392 30.9233 3.95902C32.0281 3.38928 33.118 2.94889 34.255 2.61315C40.5475 0.754332 45.0032 5.40723 45.1879 5.60437C45.4167 5.85065 45.7506 5.97682 46.0846 5.94691C46.1115 5.94416 48.8268 5.72158 50.7311 7.32154C51.852 8.26316 52.4998 9.68521 52.6564 11.5481C53.0497 16.2215 51.4317 18.8006 50.5516 19.8353C48.3861 18.1536 46.4282 14.6686 46.4069 14.6303C46.0279 13.887 44.86 13.8997 44.4961 14.6539C42.9074 17.684 39.988 18.8875 38.3184 19.3438C38.1391 17.0215 36.6583 15.1788 36.582 15.0855C36.18 14.5681 35.3334 14.5566 34.9185 15.0629C30.3428 20.3662 24.3717 20.3727 23.707 20.3573C23.5731 20.3539 23.439 20.3318 23.3084 20.2919C21.4185 19.7134 19.5455 18.0523 18.3219 16.7805C22.3786 16.0814 23.8673 13.2775 23.9384 13.1389C24.327 12.4378 23.737 11.5079 22.9394 11.5578C21.1787 11.6122 19.9328 10.9627 19.1336 9.57565C18.9334 9.22834 18.7863 8.87439 18.6786 8.55122C22.5733 8.74373 24.9612 7.52736 27.2399 6.14289C27.7525 5.83143 27.9156 5.1634 27.6041 4.6509C27.2928 4.13824 26.6248 3.97521 26.1121 4.28668C23.812 5.68429 21.5728 6.79747 17.4509 6.25982C16.7943 6.15749 16.1665 6.74689 16.2269 7.40855C16.2312 7.47431 16.3437 9.03742 17.2064 10.58C17.8244 11.6854 18.9085 12.9364 20.765 13.4696C19.5411 14.3841 17.9714 14.8185 16.0946 14.7601C15.2094 14.7042 14.6366 15.8168 15.1975 16.5042C15.3372 16.6875 18.5394 20.8424 22.2273 22.2159V24.1574C19.3999 24.4645 17.1916 26.8655 17.1916 29.7732C17.1916 32.8884 19.7261 35.4229 22.8414 35.4229C22.8922 35.4229 22.9431 35.4203 22.994 35.419C24.1429 38.8338 26.5081 41.6944 29.5722 43.4841C20.8175 44.6716 14.0474 52.1942 14.0474 61.2693V63.5254C14.0474 64.1252 14.5336 64.6114 15.1334 64.6114C15.7332 64.6114 16.2194 64.1252 16.2194 63.5254V61.2693C16.2194 57.0345 17.8968 53.1845 20.6215 50.3476L34.589 65.7167C35.8146 67.1254 38.1857 67.1254 39.4112 65.7167L43.9762 60.6936C44.3796 60.2498 44.3468 59.5629 43.9029 59.1596C43.4592 58.756 42.7722 58.789 42.3688 59.2328L37.8038 64.2559C37.396 64.7269 36.6042 64.7269 36.1965 64.2559L22.2296 48.8874C22.8619 48.3875 23.5334 47.9354 24.2384 47.5356L36.1966 60.6938C36.6051 61.1636 37.3957 61.1635 37.804 60.6938L49.7622 47.5356C50.4672 47.9356 51.1387 48.3876 51.771 48.8874L45.2921 56.0166C44.8888 56.4604 44.9216 57.1473 45.3654 57.5506C45.808 57.9532 46.4952 57.9222 46.8995 57.4774L53.3788 50.3478C56.1036 53.1846 57.7809 57.0347 57.7809 61.2694V71.8284H51.3145V63.3541C51.3145 62.7543 50.8283 62.2681 50.2285 62.2681C49.6287 62.2681 49.1424 62.7543 49.1424 63.3541V71.8284H24.8579V63.3541C24.8579 62.7543 24.3717 62.2681 23.7719 62.2681C23.1721 62.2681 22.6859 62.7543 22.6859 63.3541V71.8284H16.2194V67.8696C16.2194 67.2698 15.7332 66.7836 15.1334 66.7836C14.5336 66.7836 14.0474 67.2698 14.0474 67.8696V72.9145C14.0474 73.5143 14.5336 74.0005 15.1334 74.0005H58.867C59.4668 74.0005 59.953 73.5143 59.953 72.9145V61.2694C59.9528 52.1939 53.1827 44.6713 44.428 43.4838ZM38.6688 48.2216H35.3313L34.715 45.4915H39.2851L38.6688 48.2216ZM54.6364 29.7729C54.6364 31.5551 53.2886 33.0277 51.5589 33.2269C51.6989 32.4114 51.7728 31.5737 51.7728 30.7188V26.3505C53.3985 26.6416 54.6364 28.0648 54.6364 29.7729ZM19.3638 29.7729C19.3638 28.065 20.6019 26.6416 22.2274 26.3505V30.7188C22.2274 31.5736 22.3013 32.4114 22.4413 33.2269C20.7116 33.0276 19.3638 31.5551 19.3638 29.7729ZM24.3993 30.7188V22.5139C26.3256 22.4147 31.3164 21.7362 35.5698 17.5437C35.954 18.312 36.3193 19.3921 36.0976 20.4652C36.028 20.8026 36.1225 21.153 36.3524 21.4097C36.5824 21.6663 36.9204 21.7975 37.2634 21.7661C37.4929 21.7445 42.3774 21.2343 45.4435 17.1998C46.374 18.6022 47.9037 20.6382 49.6008 21.8258V30.7188C49.6008 37.6669 43.948 43.3195 36.9999 43.3195C30.0519 43.3195 24.3993 37.6669 24.3993 30.7188ZM31.9967 45.4915H32.4883L33.3549 49.3306L32.5941 53.5003L26.2874 46.5609C28.0589 45.8709 29.9843 45.4915 31.9967 45.4915ZM37.0001 58.3482L34.4331 55.5234L35.3691 50.3934H38.6313L39.5672 55.5234L37.0001 58.3482ZM41.406 53.5003L40.6452 49.3306L41.5118 45.4915H42.0033C44.0158 45.4915 45.9411 45.8709 47.7125 46.5609L41.406 53.5003Z" fill="black"/>
<path d="M36.9999 37.6908C40.8534 37.6908 42.0184 34.9827 42.0692 34.8597C42.0693 34.8594 42.0695 34.8591 42.0696 34.8588C42.3766 34.169 41.8308 33.3366 41.0705 33.3537C40.6188 33.3537 40.2319 33.6301 40.069 34.023C40.0142 34.139 39.3107 35.5228 36.9999 35.5228C34.6899 35.5228 33.986 34.1396 33.9308 34.023C33.7679 33.6301 33.381 33.3537 32.9293 33.3537C32.1689 33.3366 31.6233 34.1691 31.9303 34.8588C31.9305 34.8589 31.9306 34.8594 31.9308 34.8597C31.9813 34.9827 33.1464 37.6908 36.9999 37.6908Z" fill="black"/>
<path d="M30.3804 25.4446C29.7817 25.4446 29.2964 25.9299 29.2964 26.5286V29.5912C29.2964 30.1899 29.7817 30.6752 30.3804 30.6752C30.979 30.6752 31.4644 30.1899 31.4644 29.5912V26.5286C31.4644 25.9299 30.979 25.4446 30.3804 25.4446Z" fill="black"/>
<path d="M43.6196 30.6753C44.2183 30.6753 44.7036 30.19 44.7036 29.5913V26.5287C44.7036 25.9301 44.2183 25.4447 43.6196 25.4447C43.021 25.4447 42.5356 25.9301 42.5356 26.5287V29.5913C42.5356 30.19 43.021 30.6753 43.6196 30.6753Z" fill="black"/>
</g>
<defs>
<clipPath id="clip0">
<rect width="74" height="74" fill="white"/>
</clipPath>
</defs>
</svg>
