<svg width="29" height="29" viewBox="0 0 29 29" fill="none" xmlns="http://www.w3.org/2000/svg">
<g clip-path="url(#clip0)">
<path d="M3.32292 0C1.48746 0 0 1.48746 0 3.32292V13.8958H13.8958V0H3.32292ZM8.76042 8.15625H7.55208V9.36458C7.55208 9.86483 7.14608 10.2708 6.64583 10.2708C6.14558 10.2708 5.73958 9.86483 5.73958 9.36458V8.15625H4.53125C4.031 8.15625 3.625 7.75025 3.625 7.25C3.625 6.74975 4.031 6.34375 4.53125 6.34375H5.73958V5.13542C5.73958 4.63517 6.14558 4.22917 6.64583 4.22917C7.14608 4.22917 7.55208 4.63517 7.55208 5.13542V6.34375H8.76042C9.26067 6.34375 9.66667 6.74975 9.66667 7.25C9.66667 7.75025 9.26067 8.15625 8.76042 8.15625Z" fill="#FE9435"/>
<path d="M0 15.1042V25.6772C0 27.5126 1.48746 29.0001 3.32292 29.0001H13.8958V15.1042H0ZM9.09875 22.9222C9.45279 23.2762 9.45279 23.8502 9.09875 24.2042C8.92233 24.3806 8.69033 24.4688 8.45833 24.4688C8.22633 24.4688 7.99433 24.3806 7.81792 24.203L6.94792 23.333L6.07792 24.203C5.9015 24.3794 5.6695 24.4688 5.4375 24.4688C5.2055 24.4688 4.9735 24.3806 4.79708 24.203C4.44304 23.849 4.44304 23.275 4.79708 22.921L5.66708 22.051L4.79708 21.181C4.44304 20.8269 4.44304 20.253 4.79708 19.8989C5.15113 19.5449 5.72508 19.5449 6.07913 19.8989L6.94913 20.7689L7.81913 19.8989C8.17317 19.5449 8.74713 19.5449 9.10117 19.8989C9.45521 20.253 9.45521 20.8269 9.10117 21.181L8.23117 22.051L9.09875 22.9222Z" fill="#FE9435"/>
<path d="M25.6764 0H15.1035V13.8958H28.9993V3.32292C28.9993 1.48746 27.5119 0 25.6764 0ZM25.0723 7.85417H19.6348C19.1345 7.85417 18.7285 7.44817 18.7285 6.94792C18.7285 6.44767 19.1345 6.04167 19.6348 6.04167H25.0723C25.5725 6.04167 25.9785 6.44767 25.9785 6.94792C25.9785 7.44817 25.5725 7.85417 25.0723 7.85417Z" fill="#FE9435"/>
<path d="M15.1035 15.1042V29.0001H25.6764C27.5119 29.0001 28.9993 27.5126 28.9993 25.6772V15.1042H15.1035ZM24.7702 24.7709H19.3327C18.8324 24.7709 18.4264 24.3649 18.4264 23.8647C18.4264 23.3644 18.8324 22.9584 19.3327 22.9584H24.7702C25.2704 22.9584 25.6764 23.3644 25.6764 23.8647C25.6764 24.3649 25.2704 24.7709 24.7702 24.7709ZM24.7702 21.1459H19.3327C18.8324 21.1459 18.4264 20.7399 18.4264 20.2397C18.4264 19.7394 18.8324 19.3334 19.3327 19.3334H24.7702C25.2704 19.3334 25.6764 19.7394 25.6764 20.2397C25.6764 20.7399 25.2704 21.1459 24.7702 21.1459Z" fill="#FE9435"/>
</g>
<defs>
<clipPath id="clip0">
<rect width="29" height="29" fill="white"/>
</clipPath>
</defs>
</svg>
