<svg width="24" height="24" viewBox="0 0 24 24" fill="none" xmlns="http://www.w3.org/2000/svg">
<circle cx="12" cy="12" r="12" fill="#91BEF3"/>
<path d="M18.1415 11.1521C18.4716 11.5839 18.4716 12.1668 18.1415 12.5979C17.1017 13.9552 14.6071 16.75 11.6946 16.75C8.78217 16.75 6.28756 13.9552 5.24779 12.5979C5.08718 12.3911 5 12.1368 5 11.875C5 11.6132 5.08718 11.3589 5.24779 11.1521C6.28756 9.79477 8.78217 7 11.6946 7C14.6071 7 17.1017 9.79477 18.1415 11.1521V11.1521Z" stroke="white" stroke-width="1.5" stroke-linecap="round" stroke-linejoin="round"/>
<path d="M11.6948 13.9637C12.8486 13.9637 13.784 13.0283 13.784 11.8744C13.784 10.7206 12.8486 9.78516 11.6948 9.78516C10.5409 9.78516 9.60547 10.7206 9.60547 11.8744C9.60547 13.0283 10.5409 13.9637 11.6948 13.9637Z" stroke="white" stroke-width="1.5" stroke-linecap="round" stroke-linejoin="round"/>
</svg>
